<?xml version="1.0" encoding="UTF-8" standalone="no"?>
<!DOCTYPE svg PUBLIC "-//W3C//DTD SVG 1.1//EN"
 "http://www.w3.org/Graphics/SVG/1.1/DTD/svg11.dtd">
<!-- Generated by graphviz version 2.46.0 (20210119.1425)
 -->
<!-- Title: toggleMachine Pages: 1 -->
<svg width="620pt" height="149pt"
 viewBox="0.00 0.00 620.35 149.22" xmlns="http://www.w3.org/2000/svg" xmlns:xlink="http://www.w3.org/1999/xlink">
<g id="graph0" class="graph" transform="scale(1 1) rotate(0) translate(4 145.22)">
<title>toggleMachine</title>
<polygon fill="white" stroke="transparent" points="-4,4 -4,-145.22 616.35,-145.22 616.35,4 -4,4"/>
<!-- initial -->
<g id="node1" class="node">
<title>initial</title>
<ellipse fill="black" stroke="black" cx="1.8" cy="-37.42" rx="1.8" ry="1.8"/>
</g>
<!-- default -->
<g id="node2" class="node">
<title>default</title>
<polygon fill="none" stroke="black" points="95.41,-55.42 40.66,-55.42 40.66,-19.42 95.41,-19.42 95.41,-55.42"/>
<text text-anchor="middle" x="68.04" y="-33.22" font-family="Times,serif" font-size="14.00">default</text>
</g>
<!-- initial&#45;&gt;default -->
<g id="edge1" class="edge">
<title>initial&#45;&gt;default</title>
<path fill="none" stroke="black" d="M3.91,-37.42C7.38,-37.42 18.43,-37.42 30.34,-37.42"/>
<polygon fill="black" stroke="black" points="30.39,-40.92 40.39,-37.42 30.39,-33.92 30.39,-40.92"/>
</g>
<!-- turn_off -->
<g id="node3" class="node">
<title>turn_off</title>
<ellipse fill="none" stroke="black" cx="295.74" cy="-94.42" rx="42.86" ry="18"/>
<text text-anchor="middle" x="295.74" y="-90.22" font-family="Times,serif" font-size="14.00">turn_off</text>
</g>
<!-- default&#45;&gt;turn_off -->
<g id="edge2" class="edge">
<title>default&#45;&gt;turn_off</title>
<path fill="none" stroke="black" d="M87.45,-55.64C94.94,-61.99 104.04,-68.5 113.47,-72.42 154.68,-89.55 205.37,-94.5 242.67,-95.48"/>
<polygon fill="black" stroke="black" points="242.75,-98.98 252.81,-95.65 242.87,-91.98 242.75,-98.98"/>
<text text-anchor="middle" x="163.44" y="-97.62" font-family="Times,serif" font-size="14.00">on FORCE</text>
</g>
<!-- default&#45;&gt;turn_off -->
<g id="edge3" class="edge">
<title>default&#45;&gt;turn_off</title>
<path fill="none" stroke="black" d="M95.44,-37.01C124.84,-37.23 173.48,-39.66 213.41,-51.62 230.75,-56.82 248.69,-65.82 263.3,-74.23"/>
<polygon fill="black" stroke="black" points="261.54,-77.25 271.93,-79.35 265.11,-71.23 261.54,-77.25"/>
<text text-anchor="middle" x="163.44" y="-55.62" font-family="Times,serif" font-size="14.00">on OVER_TEMP</text>
</g>
<!-- turn_on -->
<g id="node4" class="node">
<title>turn_on</title>
<ellipse fill="none" stroke="black" cx="571.28" cy="-54.42" rx="41.15" ry="18"/>
<text text-anchor="middle" x="571.28" y="-50.22" font-family="Times,serif" font-size="14.00">turn_on</text>
</g>
<!-- turn_off&#45;&gt;turn_on -->
<g id="edge4" class="edge">
<title>turn_off&#45;&gt;turn_on</title>
<path fill="none" stroke="black" d="M328.83,-106C372.21,-119.7 451.15,-137.69 512.2,-112.42 528.25,-105.78 542.18,-92.32 552.37,-80.04"/>
<polygon fill="black" stroke="black" points="555.4,-81.85 558.81,-71.82 549.89,-77.53 555.4,-81.85"/>
<text text-anchor="middle" x="445.14" y="-128.62" font-family="Times,serif" font-size="14.00">after TURNOFF_TIME</text>
</g>
<!-- turn_off&#45;&gt;turn_on -->
<g id="edge5" class="edge">
<title>turn_off&#45;&gt;turn_on</title>
<path fill="none" stroke="black" d="M338.41,-92.63C382.09,-90.17 452.51,-84.59 512.2,-72.42 517.63,-71.32 523.27,-69.91 528.82,-68.36"/>
<polygon fill="black" stroke="black" points="530.01,-71.66 538.62,-65.48 528.04,-64.95 530.01,-71.66"/>
<text text-anchor="middle" x="445.14" y="-93.62" font-family="Times,serif" font-size="14.00">on FORCE</text>
</g>
<!-- turn_off&#45;&gt;turn_on -->
<g id="edge6" class="edge">
<title>turn_off&#45;&gt;turn_on</title>
<path fill="none" stroke="black" d="M318.68,-79.11C334.41,-69.1 356.54,-56.94 378.07,-51.62 426.1,-39.76 482.96,-42.57 522.32,-47.05"/>
<polygon fill="black" stroke="black" points="522.08,-50.54 532.43,-48.28 522.93,-43.6 522.08,-50.54"/>
<text text-anchor="middle" x="445.14" y="-55.62" font-family="Times,serif" font-size="14.00">on UNDER_TEMP</text>
</g>
<!-- turn_on&#45;&gt;default -->
<g id="edge7" class="edge">
<title>turn_on&#45;&gt;default</title>
<path fill="none" stroke="black" d="M537.72,-43.87C529.48,-41.64 520.59,-39.6 512.2,-38.42 380.68,-19.97 346.21,-36.09 213.41,-35.42 168.99,-35.2 157.88,-34.43 113.47,-35.42 111.06,-35.48 108.58,-35.55 106.08,-35.63"/>
<polygon fill="black" stroke="black" points="105.68,-32.14 95.82,-36.02 105.94,-39.14 105.68,-32.14"/>
<text text-anchor="middle" x="295.74" y="-38.62" font-family="Times,serif" font-size="14.00">after TURNON_TIME</text>
</g>
<!-- turn_on&#45;&gt;default -->
<g id="edge8" class="edge">
<title>turn_on&#45;&gt;default</title>
<path fill="none" stroke="black" d="M546.2,-39.97C536.05,-34.52 523.88,-28.83 512.2,-25.42 392.19,9.51 355.95,0.96 231.41,-9.62 187.82,-13.33 138.36,-22.53 105.6,-29.34"/>
<polygon fill="black" stroke="black" points="104.64,-25.96 95.58,-31.45 106.08,-32.81 104.64,-25.96"/>
<text text-anchor="middle" x="295.74" y="-13.62" font-family="Times,serif" font-size="14.00">on FORCE</text>
</g>
</g>
</svg>
