<?xml version="1.0" encoding="UTF-8" standalone="no"?>
<!DOCTYPE svg PUBLIC "-//W3C//DTD SVG 1.1//EN"
 "http://www.w3.org/Graphics/SVG/1.1/DTD/svg11.dtd">
<!-- Generated by graphviz version 2.46.0 (20210119.1425)
 -->
<!-- Title: toggleMachine Pages: 1 -->
<svg width="429pt" height="112pt"
 viewBox="0.00 0.00 428.80 111.63" xmlns="http://www.w3.org/2000/svg" xmlns:xlink="http://www.w3.org/1999/xlink">
<g id="graph0" class="graph" transform="scale(1 1) rotate(0) translate(4 107.63)">
<title>toggleMachine</title>
<polygon fill="white" stroke="transparent" points="-4,4 -4,-107.63 424.8,-107.63 424.8,4 -4,4"/>
<!-- idle -->
<g id="node1" class="node">
<title>idle</title>
<polygon fill="none" stroke="black" points="42,-57.63 0,-57.63 0,-33.63 42,-33.63 54,-45.63 42,-57.63"/>
<text text-anchor="middle" x="27" y="-41.43" font-family="Times,serif" font-size="14.00">idle</text>
</g>
<!-- loading -->
<g id="node2" class="node">
<title>loading</title>
<ellipse fill="none" stroke="black" cx="191.84" cy="-45.63" rx="40.01" ry="18"/>
<text text-anchor="middle" x="191.84" y="-41.43" font-family="Times,serif" font-size="14.00">loading</text>
</g>
<!-- idle&#45;&gt;loading -->
<g id="edge1" class="edge">
<title>idle&#45;&gt;loading</title>
<path fill="none" stroke="black" d="M54.16,-45.63C77.62,-45.63 112.67,-45.63 141.4,-45.63"/>
<polygon fill="black" stroke="black" points="141.67,-49.13 151.67,-45.63 141.67,-42.13 141.67,-49.13"/>
<text text-anchor="middle" x="102.92" y="-49.83" font-family="Times,serif" font-size="14.00">on FETCH</text>
</g>
<!-- success -->
<g id="node3" class="node">
<title>success</title>
<polygon fill="lightgrey" stroke="lightgrey" points="413.54,-103.63 355.59,-103.63 355.59,-67.63 413.54,-67.63 413.54,-103.63"/>
<text text-anchor="middle" x="384.57" y="-81.43" font-family="Times,serif" font-size="14.00">success</text>
</g>
<!-- loading&#45;&gt;success -->
<g id="edge2" class="edge">
<title>loading&#45;&gt;success</title>
<path fill="none" stroke="black" d="M227.78,-53.74C235.06,-55.39 242.69,-57.09 249.84,-58.63 281.93,-65.52 318.47,-72.87 345.24,-78.15"/>
<polygon fill="black" stroke="black" points="344.86,-81.64 355.35,-80.14 346.21,-74.78 344.86,-81.64"/>
<text text-anchor="middle" x="290.08" y="-78.83" font-family="Times,serif" font-size="14.00">on RESOLVE</text>
</g>
<!-- failure -->
<g id="node4" class="node">
<title>failure</title>
<ellipse fill="none" stroke="black" cx="384.57" cy="-18.63" rx="36.47" ry="18"/>
<text text-anchor="middle" x="384.57" y="-14.43" font-family="Times,serif" font-size="14.00">failure</text>
</g>
<!-- loading&#45;&gt;failure -->
<g id="edge3" class="edge">
<title>loading&#45;&gt;failure</title>
<path fill="none" stroke="black" d="M230.52,-40.29C261.77,-35.87 306.25,-29.57 339.22,-24.9"/>
<polygon fill="black" stroke="black" points="340.07,-28.32 349.48,-23.45 339.09,-21.39 340.07,-28.32"/>
<text text-anchor="middle" x="290.08" y="-41.83" font-family="Times,serif" font-size="14.00">on REJECT</text>
</g>
<!-- failure&#45;&gt;loading -->
<g id="edge4" class="edge">
<title>failure&#45;&gt;loading</title>
<path fill="none" stroke="black" d="M353.65,-9.16C326.07,-1.96 284.32,5.02 249.84,-5.83 238.56,-9.38 227.56,-16.04 218.28,-22.91"/>
<polygon fill="black" stroke="black" points="215.98,-20.27 210.28,-29.2 220.31,-25.77 215.98,-20.27"/>
<text text-anchor="middle" x="290.08" y="-10.83" font-family="Times,serif" font-size="14.00">on RETRY</text>
</g>
</g>
</svg>
