<?xml version="1.0" encoding="UTF-8" standalone="no"?>
<!DOCTYPE svg PUBLIC "-//W3C//DTD SVG 1.1//EN"
 "http://www.w3.org/Graphics/SVG/1.1/DTD/svg11.dtd">
<!-- Generated by graphviz version 2.46.0 (20210119.1425)
 -->
<!-- Title: toggleMachine Pages: 1 -->
<svg width="469pt" height="112pt"
 viewBox="0.00 0.00 469.40 111.63" xmlns="http://www.w3.org/2000/svg" xmlns:xlink="http://www.w3.org/1999/xlink">
<g id="graph0" class="graph" transform="scale(1 1) rotate(0) translate(4 107.63)">
<title>toggleMachine</title>
<polygon fill="white" stroke="transparent" points="-4,4 -4,-107.63 465.4,-107.63 465.4,4 -4,4"/>
<!-- initial -->
<g id="node1" class="node">
<title>initial</title>
<ellipse fill="black" stroke="black" cx="1.8" cy="-45.63" rx="1.8" ry="1.8"/>
</g>
<!-- idle -->
<g id="node2" class="node">
<title>idle</title>
<polygon fill="none" stroke="black" points="94.6,-63.63 40.6,-63.63 40.6,-27.63 94.6,-27.63 94.6,-63.63"/>
<text text-anchor="middle" x="67.6" y="-41.43" font-family="Times,serif" font-size="14.00">idle</text>
</g>
<!-- initial&#45;&gt;idle -->
<g id="edge1" class="edge">
<title>initial&#45;&gt;idle</title>
<path fill="none" stroke="black" d="M3.91,-45.63C7.37,-45.63 18.49,-45.63 30.42,-45.63"/>
<polygon fill="black" stroke="black" points="30.48,-49.13 40.48,-45.63 30.48,-42.13 30.48,-49.13"/>
</g>
<!-- loading -->
<g id="node3" class="node">
<title>loading</title>
<ellipse fill="none" stroke="black" cx="232.44" cy="-45.63" rx="40.01" ry="18"/>
<text text-anchor="middle" x="232.44" y="-41.43" font-family="Times,serif" font-size="14.00">loading</text>
</g>
<!-- idle&#45;&gt;loading -->
<g id="edge2" class="edge">
<title>idle&#45;&gt;loading</title>
<path fill="none" stroke="black" d="M94.76,-45.63C118.22,-45.63 153.27,-45.63 182,-45.63"/>
<polygon fill="black" stroke="black" points="182.27,-49.13 192.27,-45.63 182.27,-42.13 182.27,-49.13"/>
<text text-anchor="middle" x="143.52" y="-49.83" font-family="Times,serif" font-size="14.00">on FETCH</text>
</g>
<!-- success -->
<g id="node4" class="node">
<title>success</title>
<polygon fill="lightgrey" stroke="lightgrey" points="454.14,-103.63 396.19,-103.63 396.19,-67.63 454.14,-67.63 454.14,-103.63"/>
<text text-anchor="middle" x="425.17" y="-81.43" font-family="Times,serif" font-size="14.00">success</text>
</g>
<!-- loading&#45;&gt;success -->
<g id="edge3" class="edge">
<title>loading&#45;&gt;success</title>
<path fill="none" stroke="black" d="M268.38,-53.74C275.66,-55.39 283.29,-57.09 290.44,-58.63 322.53,-65.52 359.07,-72.87 385.84,-78.15"/>
<polygon fill="black" stroke="black" points="385.46,-81.64 395.95,-80.14 386.81,-74.78 385.46,-81.64"/>
<text text-anchor="middle" x="330.68" y="-78.83" font-family="Times,serif" font-size="14.00">on RESOLVE</text>
</g>
<!-- failure -->
<g id="node5" class="node">
<title>failure</title>
<ellipse fill="none" stroke="black" cx="425.17" cy="-18.63" rx="36.47" ry="18"/>
<text text-anchor="middle" x="425.17" y="-14.43" font-family="Times,serif" font-size="14.00">failure</text>
</g>
<!-- loading&#45;&gt;failure -->
<g id="edge4" class="edge">
<title>loading&#45;&gt;failure</title>
<path fill="none" stroke="black" d="M271.12,-40.29C302.37,-35.87 346.85,-29.57 379.82,-24.9"/>
<polygon fill="black" stroke="black" points="380.67,-28.32 390.08,-23.45 379.69,-21.39 380.67,-28.32"/>
<text text-anchor="middle" x="330.68" y="-41.83" font-family="Times,serif" font-size="14.00">on REJECT</text>
</g>
<!-- failure&#45;&gt;loading -->
<g id="edge5" class="edge">
<title>failure&#45;&gt;loading</title>
<path fill="none" stroke="black" d="M394.25,-9.16C366.67,-1.96 324.92,5.02 290.44,-5.83 279.16,-9.38 268.16,-16.04 258.88,-22.91"/>
<polygon fill="black" stroke="black" points="256.58,-20.27 250.88,-29.2 260.91,-25.77 256.58,-20.27"/>
<text text-anchor="middle" x="330.68" y="-10.83" font-family="Times,serif" font-size="14.00">on RETRY</text>
</g>
</g>
</svg>
